<svg xmlns="http://www.w3.org/2000/svg" height="173.333" width="173.253"><defs><clipPath id="a"><path d="M0 0h1299v1300H0z"/></clipPath><clipPath id="b"><path d="M649.672 1300C290.871 1300-.004 1008.98-.004 650c0-329.602 245.211-601.871 563.059-644.238v130.976c0 36.934-23.282 70.133-58.274 81.871-183.39 61.629-314.582 237.016-309.754 442.352 5.883 249.992 209.418 446.539 459.336 444.019 249.004-2.52 450.087-205.257 450.087-454.98 0-5.691-.14-11.355-.35-16.992l-.14-3.797c-.24-5.234-.56-10.461-.97-15.656l-.44-4.942-1.1-10.82-1.56-12.188-.78-5.527C1043.43 213.121 565.727 6.871 563.109 5.75A655.795 655.795 0 0 1 649.672 0c358.808 0 649.678 291.012 649.678 650 0 358.98-290.87 650-649.678 650" clip-rule="evenodd"/></clipPath></defs><path d="M86.623 0C38.783 0-.001 38.803-.001 86.667c0 43.947 32.695 80.25 75.075 85.898v-17.463c0-4.925-3.104-9.351-7.77-10.916-24.452-8.218-41.944-31.603-41.3-58.98.784-33.333 27.922-59.539 61.244-59.203 33.2.336 60.012 27.368 60.012 60.664 0 .759-.019 1.514-.047 2.265l-.019.507a63.551 63.551 0 0 1-.129 2.087l-.059.66-.146 1.442-.208 1.625-.104.737c-7.424 48.927-71.118 76.427-71.467 76.577a87.44 87.44 0 0 0 11.542.766c47.84 0 86.623-38.801 86.623-86.666C173.246 38.803 134.464 0 86.623 0" fill="#5fcaf4" fill-rule="evenodd"/><g clip-path="url(#a)" transform="matrix(.13333 0 0 -.13333 0 173.333)"><g clip-path="url(#b)"><path d="M-98.641-98.641H1397.99V1398.64H-98.641V-98.641" fill="#5fcaf4"/></g></g></svg>