<svg xmlns="http://www.w3.org/2000/svg" width="1289" height="1188" stroke-linecap="round" stroke-linejoin="round" fill="#fff"><path d="m1276 488-120-95V178c0-14-6-19-16-19h-110c-12 0-19 3-19 19v101L674 13C662 3 653 0 644 0s-17 3-30 13L13 488c-21 16-15 40 8 40h112v605c0 39 15 55 53 55h917c37 0 53-16 53-55V528h111c24 0 30-24 9-40zm-214 560c0 27-14 46-42 46H269c-29 0-43-19-43-46V483c0-33 15-54 31-67l361-285c10-8 18-11 26-11s16 3 26 11l361 285c17 13 31 34 31 67z" fill="#f79918"/><path d="M1031 416 670 131c-10-8-18-11-26-11s-16 3-26 11L257 416c-17 13-31 34-31 67v565c0 27 14 46 42 46h751c29 0 43-19 43-46V483c0-33-15-54-31-67zm-63 547c0 25-14 37-35 37H355c-21 0-35-12-35-37V522c0-25 5-39 23-52l279-221c7-6 15-9 22-9s14 3 21 9c7 5 270 213 280 221 17 13 23 27 23 52z" fill="#faac28"/><path d="M945 469c-10-7-273-215-280-221-7-5-14-8-21-8s-14 3-21 8c-7 6-270 214-280 221-17 14-23 28-23 52v442c0 25 14 37 35 37h578c21 0 35-12 35-37V521c0-24-6-38-23-52zm-71 409c0 20-11 28-26 28H440c-15 0-26-8-26-28V560c0-14 0-25 15-37l198-157c6-4 11-6 17-6s12 2 17 6c5 5 188 149 198 157 15 12 15 23 15 37z" fill="#fdbf47"/><path d="M859 523 661 367c-5-4-11-7-17-7s-11 2-17 7L429 523c-15 12-15 24-15 38v317c0 20 11 28 27 28h407c15 0 27-8 27-28V561c0-15 0-26-16-38zm-78 270c0 16-8 19-19 19H527c-11 0-19-3-19-19V600c0-11 5-22 13-29l111-87c7-6 18-6 25 0 3 3 106 83 110 87 9 7 14 18 14 29z" fill="#ffd364"/><path d="M645 812h117c11 0 19-3 19-19V600c0-11-5-22-13-29-5-3-107-84-111-86-7-7-18-7-25 0-4 2-106 83-111 86-8 7-13 18-13 29v193c0 16 8 19 19 19z" fill="#fff080"/></svg>